<svg id="Capa_1" enable-background="new 0 0 512.006 512.006" height="512" viewBox="0 0 512.006 512.006" width="512" xmlns="http://www.w3.org/2000/svg"><path d="m215.325 296.681-10.605-10.605-48.325 48.325 10.605 10.605 10.605 10.606 48.326-48.326z" fill="#dbeeff"/><path d="m162.294 318.647h68.342v14.998h-68.342z" fill="#b2d3ff" transform="matrix(.707 -.707 .707 .707 -173.077 234.448)"/><path d="m177.605 334.401-31.816-31.817-45 45 11.316 20.316 16.002 16 16.695 16.697 19.62 10.62 45-45z" fill="#575f64"/><path d="m164.422 411.217 45-45-31.817-31.816-49.498 49.499 16.695 16.697z" fill="#474f54"/><path d="m131.148 414.365-16.752-16.754-15.275-15.273-19.543-13.543-79.578 79.578 31.816 31.817 31.817 31.816 79.578-79.578z" fill="#575f64"/><path d="m143.211 432.428-12.063-18.063-16.752-16.754-82.58 82.579 31.817 31.816z" fill="#474f54"/><path d="m132.605 379.401-31.816-31.817-21.211 21.211 31.817 31.817 31.816 31.816 21.211-21.211z" fill="#ffe477"/><path d="m122.91 383.417h29.997v44.995h-29.997z" fill="#ffb655" transform="matrix(.707 -.707 .707 .707 -246.632 216.405)"/><circle cx="332" cy="180.006" fill="#575f64" r="179.919"/><path d="m459.222 307.228c70.402-70.402 70.356-184.087 0-254.443l-254.444 254.443c70.403 70.402 184.087 70.356 254.444 0z" fill="#474f54"/><circle cx="332" cy="180.006" fill="#f5fafc" r="149.927"/><path d="m438.014 286.021c58.638-58.638 58.671-153.358 0-212.029l-212.028 212.029c58.637 58.635 153.358 58.67 212.028 0z" fill="#dbeeff"/><path d="m416.813 95.194c-21.73-21.73-51.73-35.188-84.813-35.188-66.167 0-120 53.833-120 120 0 33.083 13.458 63.083 35.188 84.813 21.729 21.729 51.729 35.188 84.813 35.188 66.167 0 120-53.833 120-120-.001-33.084-13.459-63.084-35.188-84.813z" fill="#ffe477"/><path d="m452 180.006c0-33.083-13.458-63.083-35.188-84.813l-169.624 169.626c21.729 21.729 51.729 35.188 84.813 35.188 66.166-.001 119.999-53.834 119.999-120.001z" fill="#ffb655"/><path d="m317 210.006h30v30h-30z" fill="#474f54"/><path d="m317 120.006h30v60h-30z" fill="#575f64"/></svg>